<svg xmlns="http://www.w3.org/2000/svg" xmlns:xlink="http://www.w3.org/1999/xlink" viewBox="0 0 341.87 310.87"><defs><clipPath id="clip-path" transform="translate(66.13 -12.2)"><rect width="242.98" height="123.67" fill="none"/></clipPath></defs><title>Asset 1hamutana</title><g id="Layer_2" data-name="Layer 2"><g id="Capa_1" data-name="Capa 1"><path d="M65.76,166.27a390.71,390.71,0,0,0-2.91,47.29l-.47,1.16-.7-.11-.7,3.62-.82-.12-.82-.24L57.71,225,56.42,224,55.84,225l-1.4.11s-.35,1.75-.82,1.87a1.9,1.9,0,0,1-.81.12c-2.57-6.54-4.21-15.65-5.14-25.69a4.31,4.31,0,0,1-1.52.7c-4.67,0-13.77,1.76-20.43,2.92-.35,5.26-.58,8.53-.58,8.53l-.82-1.06-.58,3-1.4.35-1.52,4.44-3.39,2.1-2,2.8-1-.7-.94,3.15s-1.05,1.29-1.52,1.4c-.81-4.78-.93-69.81-3.73-83.35-.12-.47.35-1.52,1.63-1.87C15,142.22,28.76,140,28.06,161.49c-.24,9-.71,18.56-1.17,27.08a94.64,94.64,0,0,1,20-.23c-.82-18.45.24-36.78,1.29-43.43,5-2.22,16.81-2.22,18.67,3.27C67.87,151.45,67.05,156.35,65.76,166.27Z" transform="translate(66.13 -12.2)"/><path d="M117.83,221.61c-.23.82-1.28,4.79-1.28,4.79l-1-.59c-12.49-1.75-35.26.94-44.95,4.09-8.17,2.68-10.51-8.52-7.12-16.11,12.26-7.12,49.15-4,52.77,2.33.23.24-.59-.11-.59-.11l1.64,2-1,.24S118.07,220.79,117.83,221.61ZM63,197a195.9,195.9,0,0,0,13.78-51.49c9.57-1.4,14.94-1.05,17.63.82,4.55-.12,8.87,1.4,9.69,6.77a258.89,258.89,0,0,0,13.77,53c-.11,0-1.87-1.86-1.87-1.86l-.81,1.28-1.29-.82-1-.58-1.28,1.05s-.47-1.05-1-2.1c-.35.93-1.87,4.55-1.87,4.55l-1-.7c-12-3.38-25.68-1.87-35.72,0-5.38.93-7.59-3.27-7.48-8.29C64,197.79,63.66,197,63,197Zm34.09-6.66c-2.57-5.95-4.9-11.9-7-17.51A165.94,165.94,0,0,1,83.16,188,65.31,65.31,0,0,1,97.05,190.32Z" transform="translate(66.13 -12.2)"/><path d="M193.48,213l-1.16,4.2-1.17.24-.47,2.92-.93,3.5-1.52.23-.23,2.69a3.56,3.56,0,0,0-1.87.11c-.35.12-.24,1.17-.59,1.29-6.3-11.44-10.62-32-13.07-50.09-4,12.5-9.92,29.31-13.66,39.35-.82,2.45-11.79,6.42-12.84-4.09-2.8-6.42-7.36-18-12.26-29.65-1.87,17.51-4.09,30.82-4.09,30.82l-1.51-.23-4.44,7.82-3,.93-.93,1.87s-1.87-1.52-2.92-1-1.63,3-2.33,3c1.4-14.36,3.85-61.64,2.21-79,0-.12-.11-.24-.23-.35a.38.38,0,0,0,.23-.12,22.87,22.87,0,0,0-.46-3.5,18.61,18.61,0,0,1,9.45-.47c6.31-1.28,13.2-.23,14.83,5.14,4.67,16.11,8.87,31.17,11.32,40.63a446,446,0,0,1,17.87-41,21.1,21.1,0,0,1-.12-2.57c4.67-2.92,16.34-4.55,19,.82,1.52,3.15,1,7.59,1.17,17.86A413.59,413.59,0,0,0,193.48,213Z" transform="translate(66.13 -12.2)"/><path d="M197.21,146.43c4.79-2.22,14,3.27,13.43,5.72-7.82,32.34,2.8,37.12,4.09,37.24,2.21.23,10.74-4.79,10.74-18.33,0-16.23-3.62-20.66-3.62-20.66l-.47-.12s1.17-.35.94-.82c-.12-.11-.71-.58-.71-.81A1.93,1.93,0,0,1,223,147c5.95-2.57,16.22,4.44,16,24.75-.23,17.28-8.87,31.87-22.42,31.64-15.17-.24-23.81-17.86-24-30.36C192.19,156.82,195.93,147,197.21,146.43Zm4.67,80.32c9.58-3,22.3-6.31,34.44-4.67l1.06.58s.93-3.85,1.28-4.67-1.64-3.27-1.64-3.27l.94-.23-1.52-1.87s.7.23.58.12c-3.5-6.19-30.12-8.52-41.91-1.64C191.84,218.46,194.06,229.32,201.88,226.75Z" transform="translate(66.13 -12.2)"/><path d="M84.35,239.42c-.47,4.32-4.2,12.14-14.36,15.41-5.95.23-11.44.58-16.35.82-.7,23.58-4,50.43-4,50.43l-2.57,5.72-.94-.12-1.86,4.21s-.59-.94-1.41.11a12.7,12.7,0,0,0-1,2.45h-.93l-1.52,2.34-1-2.92s-1.05,4-1.52,4.09c-.58-3.62-.46-40.86-1.51-65.38-10.51.58-16.47.93-18.45,1.05-9.81.23-10-18.91-3.74-19.85A159,159,0,0,1,34,236.73a3.58,3.58,0,0,1,1.29-.93c2.91-.82,8.28-1.64,12.49,1.28C59.37,237.55,71.86,238.48,84.35,239.42Z" transform="translate(66.13 -12.2)" fill="#48a8b9"/><path d="M119.26,314.37c-.24.82-1.29,4.79-1.29,4.79l-1-.59c-12.49-1.75-35.26.94-44.95,4.09-8.17,2.68-10.5-8.52-7.12-16.11,12.26-7.12,49.15-4,52.77,2.33.23.24-.58-.11-.58-.11l1.63,2-1,.23S119.49,313.55,119.26,314.37ZM64.39,289.74c5.48-13.55,11.2-30.24,13.77-51.49,9.57-1.4,14.94-1.05,17.63.82,4.55-.12,8.87,1.4,9.69,6.77a258.45,258.45,0,0,0,13.78,53c-.12,0-1.87-1.87-1.87-1.87l-.82,1.29-1.28-.82-1.05-.58L113,297.91s-.47-1.05-1-2.1c-.35.93-1.87,4.55-1.87,4.55l-1-.7c-12-3.39-25.68-1.87-35.72,0-5.37.93-7.59-3.27-7.47-8.29C65.44,290.55,65.09,289.74,64.39,289.74Zm34.08-6.66c-2.56-5.95-4.9-11.91-7-17.51a165.94,165.94,0,0,1-6.89,15.18A64.69,64.69,0,0,1,98.47,283.08Z" transform="translate(66.13 -12.2)" fill="#48a8b9"/><path d="M175.64,315.42c-1.63,4.67-14.36,10.51-17.63-3.15-8-12.61-16.22-29.77-23.58-44.48-1.4,20.08-3.5,39-3.5,39l-.7-.35-2.92,6.19-1.75.93-1.4,4.09-1.4-1.29-1.64,4.32a6.16,6.16,0,0,0-2.1.35,4,4,0,0,0-1.4,1.4c-.82-5,.7-75.3-2.1-85.57a17.46,17.46,0,0,1,4.78-1c6.43-2.92,15.42-2.34,18.22,5.37,5.72,16.34,14.24,35.72,19.38,47.28,1.52-22.06,4.78-50.32,6.89-58,.34.35.46,2.68.81,3s.7-1.63.94-1.4,1.16,4.32,1.51,4.91c.7.7,2.11.23,2.11.23a77.73,77.73,0,0,1,4.78,11.32c.12.35.23.71.35,1.17C172,309,176.81,311.92,175.64,315.42Z" transform="translate(66.13 -12.2)" fill="#48a8b9"/><path d="M229.58,314.37c-.24.82-1.29,4.79-1.29,4.79l-1-.59c-12.49-1.75-35.25.94-44.94,4.09-8.18,2.68-10.51-8.52-7.13-16.11,12.26-7.12,49.15-4,52.77,2.33.24.24-.58-.11-.58-.11l1.63,2-1.05.23S229.81,313.55,229.58,314.37Zm-54.87-24.63c5.48-13.55,11.21-30.24,13.77-51.49,9.58-1.4,15-1.05,17.63.82,4.56-.12,8.87,1.4,9.69,6.77a258.45,258.45,0,0,0,13.78,53c-.12,0-1.87-1.87-1.87-1.87l-.82,1.29-1.28-.82-1.05-.58-1.29,1.05s-.46-1.05-1.05-2.1c-.35.93-1.87,4.55-1.87,4.55l-1-.7c-12-3.39-25.68-1.87-35.72,0-5.37.93-7.59-3.27-7.47-8.29C175.76,290.55,175.41,289.74,174.71,289.74Zm34.09-6.66c-2.57-5.95-4.91-11.91-7-17.51a163.28,163.28,0,0,1-6.89,15.18A64.89,64.89,0,0,1,208.8,283.08Z" transform="translate(66.13 -12.2)" fill="#48a8b9"/><g clip-path="url(#clip-path)"><path d="M-65,187.47c1.51,1.13,3.11,2.45,3.11,4.63v8.75c0,3.19,1.4,4.66,4.35,4.66s4.47-1.36,6.38-3.88V187.78H-49v16.37a1.38,1.38,0,0,0,1.4,1.36,1.35,1.35,0,0,0,1.09-.58l1.78,1.21a3.34,3.34,0,0,1-2.83,1.51,3.51,3.51,0,0,1-3.58-3.46,7.58,7.58,0,0,1-6.57,3.35c-3.81,0-6-1.79-6.26-5.68V192.1c0-1.32-1.44-2.33-2.14-2.84Z" transform="translate(66.13 -12.2)" fill="#fff"/><path d="M-38.41,187.59a5.34,5.34,0,0,1,2.14,3.58,7.77,7.77,0,0,1,6.84-3.7c3.81,0,6,1.79,6.26,5.68v11.08a1.38,1.38,0,0,0,1.4,1.36,1.4,1.4,0,0,0,1.09-.58l1.75,1.16a3.31,3.31,0,0,1-2.88,1.56,3.43,3.43,0,0,1-3.5-3.5V194.16c0-3.19-1.36-4.66-4.31-4.66s-4.67,1.59-6.42,3.92v13.8h-2.14V193.5a6.23,6.23,0,0,0-1.55-4.63Z" transform="translate(66.13 -12.2)" fill="#fff"/><path d="M2.8,187.59a5.38,5.38,0,0,1,2.14,3.58,7.77,7.77,0,0,1,6.84-3.7c3.81,0,6,1.79,6.26,5.68v11.08a1.38,1.38,0,0,0,1.4,1.36,1.41,1.41,0,0,0,1.09-.58l1.75,1.16a3.31,3.31,0,0,1-2.88,1.56,3.43,3.43,0,0,1-3.5-3.5V194.16c0-3.19-1.36-4.66-4.32-4.66s-4.66,1.59-6.41,3.92v13.8H3V193.5a6.24,6.24,0,0,0-1.56-4.63Z" transform="translate(66.13 -12.2)" fill="#fff"/><path d="M28.46,187.47c1.51,1.13,3.11,2.45,3.11,4.63v8.75c0,3.19,1.39,4.66,4.35,4.66s4.47-1.36,6.38-3.88V187.78h2.1v16.37a1.37,1.37,0,0,0,1.4,1.36,1.34,1.34,0,0,0,1.08-.58l1.79,1.21a3.36,3.36,0,0,1-2.84,1.51,3.51,3.51,0,0,1-3.57-3.46,7.58,7.58,0,0,1-6.57,3.35c-3.81,0-6-1.79-6.26-5.68V192.1c0-1.32-1.44-2.33-2.14-2.84Z" transform="translate(66.13 -12.2)" fill="#fff"/><path d="M69.86,205.36a12.76,12.76,0,0,1-7.23,2.25c-6,0-8.71-4-8.71-9.33,0-5,2.45-10.81,8.55-10.81,3.81,0,6.92,2.3,6.92,6,0,3.89-3.38,6-8.55,6H56.25c.47,3.92,2.45,6.14,6.38,6.14a13,13,0,0,0,6.22-1.86Zm-9-7.93c3.65,0,6.37-1,6.37-4,0-2.76-2.25-4-4.62-4-4.67,0-6.46,4.9-6.46,8.05Z" transform="translate(66.13 -12.2)" fill="#fff"/><path d="M77.24,187.16a7.66,7.66,0,0,1,3.07,4.2L84.44,204l5.28-16.14h2.14l-6.34,19.4H83.35L78,191.09a4.76,4.76,0,0,0-1.9-2.18Z" transform="translate(66.13 -12.2)" fill="#fff"/><path d="M117,197.58c0,5.95-4,10-9.68,10s-9.65-4.24-9.65-10,3.85-10.15,9.68-10.15S117,191.71,117,197.58Zm-17.11,0c0,4.75,2.88,8,7.46,8,4.75,0,7.43-3.54,7.43-8.16,0-4.82-2.92-7.93-7.43-7.93C102.47,189.5,99.87,193.07,99.87,197.58Z" transform="translate(66.13 -12.2)" fill="#fff"/><path d="M154.8,205.36a12.76,12.76,0,0,1-7.23,2.25c-6,0-8.71-4-8.71-9.33,0-5,2.45-10.81,8.55-10.81,3.81,0,6.93,2.3,6.93,6,0,3.89-3.39,6-8.56,6h-4.59c.47,3.92,2.45,6.14,6.38,6.14a13,13,0,0,0,6.22-1.86Zm-9-7.93c3.66,0,6.38-1,6.38-4,0-2.76-2.26-4-4.63-4-4.66,0-6.45,4.9-6.45,8.05Z" transform="translate(66.13 -12.2)" fill="#fff"/><path d="M163,203.73a10.41,10.41,0,0,0,5.76,1.86c2.37,0,4.58-.93,4.58-3.54,0-1.67-.89-2.6-2.68-3.46-3.34-1.59-7.66-2.1-7.66-6.22,0-3.19,2.57-4.9,5.72-4.9a10.53,10.53,0,0,1,5,1.21l-.42,2a10.46,10.46,0,0,0-4.59-1.16c-2.22,0-3.42,1.08-3.42,2.64,0,3.11,4.7,3.54,7.66,5.33a4.92,4.92,0,0,1,2.68,4.54c0,4-3.46,5.6-7,5.6a10.65,10.65,0,0,1-6.65-2.25Z" transform="translate(66.13 -12.2)" fill="#fff"/><path d="M191.34,187.86V190H185.2v11.66c0,2.41.51,3.93,2.72,3.93a4.05,4.05,0,0,0,3.7-2.29l1.59,1.16a5.72,5.72,0,0,1-5.29,3.15c-3.58,0-4.86-2.37-4.86-6V183h2.14v4.9Z" transform="translate(66.13 -12.2)" fill="#fff"/><path d="M202.65,181.37A1.65,1.65,0,1,1,201,179.7,1.65,1.65,0,0,1,202.65,181.37Zm-.5,22.74a1.37,1.37,0,0,0,1.36,1.36,1.29,1.29,0,0,0,1.09-.58l1.79,1.17a3.42,3.42,0,0,1-2.88,1.55,3.46,3.46,0,0,1-3.5-3.5V187.78h2.14Z" transform="translate(66.13 -12.2)" fill="#fff"/><path d="M214.86,204.07a1.34,1.34,0,0,0,2.45.78L219.1,206a3.66,3.66,0,0,1-3,1.55,3.49,3.49,0,0,1-3.42-3.5V179h2.14Z" transform="translate(66.13 -12.2)" fill="#fff"/><path d="M243.67,197.58c0,5.95-4,10-9.68,10s-9.64-4.24-9.64-10,3.85-10.15,9.68-10.15S243.67,191.71,243.67,197.58Zm-17.11,0c0,4.75,2.88,8,7.47,8,4.74,0,7.42-3.54,7.42-8.16,0-4.82-2.91-7.93-7.42-7.93C229.17,189.5,226.56,193.07,226.56,197.58Z" transform="translate(66.13 -12.2)" fill="#fff"/><path d="M253.5,205.75a1.65,1.65,0,1,1-1.67-1.68A1.65,1.65,0,0,1,253.5,205.75Z" transform="translate(66.13 -12.2)" fill="#fff"/><path d="M264.62,205.75a1.65,1.65,0,1,1-1.67-1.68A1.65,1.65,0,0,1,264.62,205.75Z" transform="translate(66.13 -12.2)" fill="#fff"/><path d="M275.74,205.75a1.66,1.66,0,1,1-1.67-1.68A1.65,1.65,0,0,1,275.74,205.75Z" transform="translate(66.13 -12.2)" fill="#fff"/><path d="M221.14,85.06H203.4a9.27,9.27,0,0,1-9.26-9.27V58a9.27,9.27,0,0,0-9.27-9.27H166.94a9.27,9.27,0,0,1-9.27-9.27v-18a9.27,9.27,0,0,0-9.27-9.27h-54a9.27,9.27,0,0,0-9.27,9.27v18a9.27,9.27,0,0,1-9.27,9.27H58.33A9.27,9.27,0,0,0,49.06,58v17.8a9.27,9.27,0,0,1-9.27,9.27H21.68a9.27,9.27,0,0,0-9.27,9.27v54.12a9.27,9.27,0,0,0,9.27,9.27H39.79A9.27,9.27,0,0,1,49.06,167v17.8a9.27,9.27,0,0,0,9.27,9.27H75.87a9.27,9.27,0,0,1,9.27,9.27v18a9.27,9.27,0,0,0,9.27,9.27h54a9.27,9.27,0,0,0,9.27-9.27v-18a9.27,9.27,0,0,1,9.27-9.27h17.93a9.27,9.27,0,0,0,9.27-9.27V167a9.27,9.27,0,0,1,9.26-9.26h17.74a9.27,9.27,0,0,0,9.26-9.27V94.33A9.27,9.27,0,0,0,221.14,85.06ZM193.36,137.9A10.32,10.32,0,0,1,183,148.17h-11a1.08,1.08,0,0,0-1.12,1v10.86a10.31,10.31,0,0,1-10.34,10.27H149.54a1.08,1.08,0,0,0-1.11,1v11a10.31,10.31,0,0,1-10.34,10.27H104.73a10.31,10.31,0,0,1-10.34-10.27v-11a1.08,1.08,0,0,0-1.11-1H82.44A10.31,10.31,0,0,1,72.1,160.07V149.21a1.08,1.08,0,0,0-1.12-1H59.79A10.32,10.32,0,0,1,49.45,137.9v-33A10.31,10.31,0,0,1,59.79,94.61H71a1.09,1.09,0,0,0,1.12-1V82.7A10.31,10.31,0,0,1,82.44,72.43H93.28a1.08,1.08,0,0,0,1.11-1v-11a10.32,10.32,0,0,1,10.34-10.27h33.36a10.32,10.32,0,0,1,10.34,10.27v11a1.08,1.08,0,0,0,1.11,1h11.07A10.31,10.31,0,0,1,171,82.7V93.56a1.09,1.09,0,0,0,1.12,1h11a10.31,10.31,0,0,1,10.34,10.27Z" transform="translate(66.13 -12.2)" fill="#000205"/><path d="M121.41,98.46h0A22.52,22.52,0,0,0,98.91,121h0a22.52,22.52,0,0,0,22.5,22.54h0A22.51,22.51,0,0,0,143.9,121h0A22.51,22.51,0,0,0,121.41,98.46Z" transform="translate(66.13 -12.2)" fill="#48a8b9"/></g></g></g></svg>